<?xml version="1.0" encoding="iso-8859-1"?>
<!-- Generator: Adobe Illustrator 19.0.0, SVG Export Plug-In . SVG Version: 6.00 Build 0)  -->
<svg version="1.1" id="Layer_1" xmlns="http://www.w3.org/2000/svg" xmlns:xlink="http://www.w3.org/1999/xlink" x="0px" y="0px"
	 viewBox="0 0 430.482 430.482" style="enable-background:new 0 0 430.482 430.482;" xml:space="preserve">
<g>
	<g>
		<g>
			<path d="M422.982,376.483h-26.999v-25.499c0-4.142-3.358-7.5-7.5-7.5h-8.466V200.992h8.466c4.142,0,7.5-3.358,7.5-7.5v-25.498
				h11.998c4.142,0,7.5-3.358,7.5-7.5v-29.998h7.5c4.142,0,7.5-3.358,7.5-7.5V85.497c0-3.143-1.959-5.952-4.908-7.038L217.833,1.963
				c-1.673-0.616-3.511-0.616-5.184,0L4.908,78.459C1.959,79.545,0,82.355,0,85.497v37.499c0,4.142,3.358,7.5,7.5,7.5H15v29.998
				c0,4.142,3.358,7.5,7.5,7.5h11.998v25.498c0,4.142,3.358,7.5,7.5,7.5h8.466v142.492h-8.466c-4.142,0-7.5,3.358-7.5,7.5v25.499
				H7.5c-4.142,0-7.5,3.358-7.5,7.5v37.498c0,4.142,3.358,7.5,7.5,7.5h415.482c4.142,0,7.5-3.358,7.5-7.5v-37.498
				C430.482,379.841,427.124,376.483,422.982,376.483z M380.983,358.484v17.999h-74.995v-17.999H380.983z M260.238,343.484h-8.466
				V200.992h8.466c4.142,0,7.5-3.358,7.5-7.5v-25.498h23.25v25.498c0,4.142,3.358,7.5,7.5,7.5h8.466v142.492h-8.466
				c-4.142,0-7.5,3.358-7.5,7.5v25.499h-23.25v-25.499C267.738,346.842,264.38,343.484,260.238,343.484z M131.994,343.484h-8.466
				V200.992h8.466c4.142,0,7.5-3.358,7.5-7.5v-25.498h23.25v25.498c0,4.142,3.358,7.5,7.5,7.5h8.466v142.492h-8.466
				c-4.142,0-7.5,3.358-7.5,7.5v25.499h-23.25v-25.499C139.494,346.842,136.136,343.484,131.994,343.484z M177.743,185.992v-17.998
				h74.996v17.998H177.743z M236.773,200.992v142.492h-43.064V200.992H236.773z M177.743,358.484h74.996v17.999h-74.996V358.484z
				 M321.955,343.484V200.992h43.063v142.492H321.955z M380.983,185.992h-74.995v-17.998h74.995V185.992z M30,152.994v-22.498
				h25.725c4.142,0,7.5-3.358,7.5-7.5c0-4.142-3.358-7.5-7.5-7.5H22.5H15V90.728l200.241-73.734l200.241,73.734v24.768h-7.5H100.08
				c-4.142,0-7.5,3.358-7.5,7.5c0,4.142,3.358,7.5,7.5,7.5h300.402v22.498H30z M49.499,185.992v-17.998h74.995v17.998H49.499z
				 M108.527,200.992v142.492H65.464V200.992H108.527z M49.499,358.484h74.995v17.999H49.499V358.484z M415.482,413.981H15v-22.498
				h400.482V413.981z"/>
			<path d="M70.654,125.86C70.464,125.41,70.844,126.32,70.654,125.86L70.654,125.86z"/>
			<path d="M72.274,117.69c-2.087,2.15-2.797,5.381-1.62,8.17c0.377,0.913,0.933,1.732,1.62,2.44c2.956,2.869,7.655,2.873,10.61,0
				c2.869-2.951,2.869-7.659,0-10.61C79.932,114.82,75.227,114.824,72.274,117.69z"/>
		</g>
	</g>
</g>
<g>
</g>
<g>
</g>
<g>
</g>
<g>
</g>
<g>
</g>
<g>
</g>
<g>
</g>
<g>
</g>
<g>
</g>
<g>
</g>
<g>
</g>
<g>
</g>
<g>
</g>
<g>
</g>
<g>
</g>
</svg>
