<?xml version="1.0" encoding="iso-8859-1"?>
<!-- Generator: Adobe Illustrator 19.0.0, SVG Export Plug-In . SVG Version: 6.00 Build 0)  -->
<svg version="1.1" id="Capa_1" xmlns="http://www.w3.org/2000/svg" xmlns:xlink="http://www.w3.org/1999/xlink" x="0px" y="0px"
	 viewBox="0 0 512 512" style="enable-background:new 0 0 512 512;" xml:space="preserve">
<g>
	<g>
		<path d="M256,429c-5.52,0-10,4.48-10,10c0,5.52,4.48,10,10,10c5.52,0,10-4.48,10-10C266,433.48,261.52,429,256,429z"/>
	</g>
</g>
<g>
	<g>
		<path d="M436,492h-30v-33c0-16.542-13.458-30-30-30h-10v-10c0-13.305-8.71-24.609-20.724-28.525
			c-0.834-9.297-17.712-197.492-18.517-206.464C337.854,179.751,346,168.957,346,156c0-13.036-8.361-24.152-20-28.28V80h10
			c5.523,0,10-4.478,10-10c0-5.522-4.477-10-10-10h-10.713C320.503,26.368,291.593,0,256,0c-35.601,0-64.504,26.372-69.287,60H176
			c-5.523,0-10,4.478-10,10c0,5.522,4.477,10,10,10h10v47.703c-11.454,4.041-20,15.03-20,28.297
			c0,12.751,8.001,23.663,19.243,27.998c-0.392,4.366-18.126,202.1-18.518,206.477C154.71,394.391,146,405.695,146,419v10h-10
			c-16.542,0-30,13.458-30,30v33H76c-5.523,0-10,4.478-10,10c0,5.522,4.477,10,10,10h360c5.523,0,10-4.478,10-10
			C446,496.478,441.523,492,436,492z M256,20c24.45,0,44.439,17.411,49.002,40h-98.003C211.56,37.412,231.553,20,256,20z M306,80v46
			h-40V80H306z M206,80h40v46h-40V80z M196,146h120c5.514,0,10,4.486,10,10c0,5.521-4.479,10-10,10H196c-5.514,0-10-4.486-10-10
			C186,150.479,190.479,146,196,146z M307.351,191.506l4.948,55.17l-117.883,58.942l5.412-60.346L307.351,191.506z M201.928,221.86
			l3.216-35.86h68.498L201.928,221.86z M314.218,268.076l4.958,55.284L193.545,389h-6.608l5.379-59.973L314.218,268.076z
			 M321.11,344.916L325.063,389h-88.328L321.11,344.916z M386,492H126v-33c0-5.514,4.486-10,10-10h79.58c5.523,0,10-4.478,10-10
			c0-5.522-4.477-10-10-10H166v-10c0-5.514,4.486-10,10-10h19.979c0.01,0,0.019,0.002,0.029,0.002c0.011,0,0.022-0.002,0.033-0.002
			h139.927c0.007,0,0.014,0.001,0.021,0.001c0.005,0,0.011-0.001,0.016-0.001c5.512,0.003,9.995,4.488,9.995,10v10h-49.58
			c-5.523,0-10,4.478-10,10c0,5.522,4.477,10,10,10H376c5.514,0,10,4.486,10,10V492z"/>
	</g>
</g>
<g>
	<g>
		<path d="M441.746,198.681l-68.28-28.28c-5.103-2.111-10.953,0.311-13.065,5.413c-2.113,5.102,0.31,10.952,5.412,13.065
			l68.28,28.28c5.124,2.119,10.959-0.327,13.065-5.413C449.271,206.643,446.848,200.794,441.746,198.681z"/>
	</g>
</g>
<g>
	<g>
		<path d="M447.159,60.254c-2.113-5.104-7.963-7.524-13.065-5.413l-68.28,28.28c-5.103,2.113-7.525,7.963-5.412,13.065
			c2.11,5.093,7.95,7.53,13.065,5.413l68.28-28.28C446.849,71.206,449.272,65.356,447.159,60.254z"/>
	</g>
</g>
<g>
	<g>
		<path d="M416,126h-40c-5.523,0-10,4.478-10,10c0,5.522,4.477,10,10,10h40c5.523,0,10-4.478,10-10C426,130.478,421.523,126,416,126
			z"/>
	</g>
</g>
<g>
	<g>
		<path d="M146.187,83.122l-68.28-28.28c-5.104-2.111-10.952,0.31-13.065,5.413c-2.113,5.103,0.31,10.952,5.412,13.065l68.28,28.28
			c5.123,2.119,10.959-0.327,13.065-5.413C153.712,91.084,151.289,85.235,146.187,83.122z"/>
	</g>
</g>
<g>
	<g>
		<path d="M151.598,175.814c-2.113-5.102-7.964-7.523-13.065-5.413l-68.28,28.28c-5.102,2.113-7.525,7.963-5.412,13.065
			c2.11,5.095,7.952,7.529,13.065,5.413l68.28-28.28C151.289,186.766,153.711,180.916,151.598,175.814z"/>
	</g>
</g>
<g>
	<g>
		<path d="M136,126H96c-5.523,0-10,4.478-10,10c0,5.522,4.477,10,10,10h40c5.523,0,10-4.478,10-10C146,130.478,141.523,126,136,126z
			"/>
	</g>
</g>
<g>
</g>
<g>
</g>
<g>
</g>
<g>
</g>
<g>
</g>
<g>
</g>
<g>
</g>
<g>
</g>
<g>
</g>
<g>
</g>
<g>
</g>
<g>
</g>
<g>
</g>
<g>
</g>
<g>
</g>
</svg>
